<svg width="20" height="20" viewBox="0 0 20 20" fill="none" xmlns="http://www.w3.org/2000/svg">
<path d="M10 16.6964C9.81355 16.6948 9.62947 16.6543 9.45958 16.5774C9.28969 16.5005 9.13772 16.389 9.01341 16.25C7.38394 14.4643 4.64287 11.067 4.64287 8.82145C4.62259 7.37963 5.17537 5.98871 6.17981 4.95413C7.18425 3.91956 8.55823 3.32592 10 3.30359C11.4418 3.32592 12.8158 3.91956 13.8202 4.95413C14.8247 5.98871 15.3774 7.37963 15.3572 8.82145C15.3572 11.0536 12.6161 14.442 10.9866 16.2545C10.8619 16.3927 10.7098 16.5033 10.5399 16.5794C10.37 16.6555 10.1862 16.6954 10 16.6964ZM10 4.19645C8.79541 4.21992 7.6492 4.71984 6.81245 5.58672C5.97569 6.4536 5.5166 7.61676 5.53573 8.82145C5.53573 10.2232 7.08484 12.7768 9.67859 15.6563C9.72023 15.6995 9.77016 15.7338 9.82539 15.7573C9.88061 15.7808 9.94001 15.7929 10 15.7929C10.06 15.7929 10.1194 15.7808 10.1746 15.7573C10.2299 15.7338 10.2798 15.6995 10.3214 15.6563C12.9152 12.7768 14.4643 10.2232 14.4643 8.82145C14.4834 7.61676 14.0243 6.4536 13.1876 5.58672C12.3508 4.71984 11.2046 4.21992 10 4.19645Z" fill="white"/>
<path d="M10.0001 11.3393C9.47033 11.3393 8.95246 11.1822 8.51197 10.8879C8.07148 10.5936 7.72816 10.1752 7.52543 9.6858C7.32269 9.19635 7.26965 8.65778 7.373 8.13819C7.47636 7.6186 7.73146 7.14132 8.10607 6.76671C8.48067 6.39211 8.95795 6.137 9.47754 6.03365C9.99713 5.93029 10.5357 5.98334 11.0252 6.18607C11.5146 6.38881 11.9329 6.73213 12.2273 7.17262C12.5216 7.6131 12.6787 8.13098 12.6787 8.66075C12.6787 9.37115 12.3965 10.0525 11.8941 10.5548C11.3918 11.0571 10.7105 11.3393 10.0001 11.3393ZM10.0001 6.87504C9.64692 6.87504 9.30168 6.97977 9.00802 7.17598C8.71436 7.3722 8.48548 7.65109 8.35032 7.97739C8.21516 8.30368 8.1798 8.66273 8.2487 9.00913C8.31761 9.35552 8.48768 9.6737 8.73742 9.92344C8.98715 10.1732 9.30534 10.3433 9.65173 10.4122C9.99813 10.4811 10.3572 10.4457 10.6835 10.3105C11.0098 10.1754 11.2887 9.9465 11.4849 9.65284C11.6811 9.35918 11.7858 9.01393 11.7858 8.66075C11.7858 8.18715 11.5977 7.73295 11.2628 7.39806C10.9279 7.06317 10.4737 6.87504 10.0001 6.87504Z" fill="white"/>
<rect x="0.5" y="0.5" width="19" height="19" rx="9.5" stroke="white"/>
</svg>
