<svg width="20" height="20" viewBox="0 0 20 20" fill="none" xmlns="http://www.w3.org/2000/svg">
<g clip-path="url(#clip0_18_657)">
<path d="M14.5333 4.8999H5.4666C4.52778 4.8999 3.7666 5.66108 3.7666 6.5999V13.3999C3.7666 14.3387 4.52778 15.0999 5.4666 15.0999H14.5333C15.4721 15.0999 16.2333 14.3387 16.2333 13.3999V6.5999C16.2333 5.66108 15.4721 4.8999 14.5333 4.8999ZM14.5333 6.03324C14.5987 6.03324 14.6616 6.04429 14.72 6.06483L9.99993 9.84095L5.27988 6.06483C5.33825 6.04429 5.40115 6.03324 5.4666 6.03324H14.5333ZM14.5333 13.9666H5.4666C5.15366 13.9666 4.89993 13.7128 4.89993 13.3999V7.21219L9.64591 11.009C9.74933 11.0919 9.87456 11.1332 9.99993 11.1332C10.1253 11.1332 10.2505 11.0919 10.354 11.009L15.0999 7.21219V13.3999C15.0999 13.7128 14.8462 13.9666 14.5333 13.9666Z" fill="white"/>
</g>
<rect x="0.5" y="0.5" width="19" height="19" rx="9.5" stroke="white"/>
<defs>
<clipPath id="clip0_18_657">
<rect width="13.6" height="13.6" fill="white" transform="translate(3.19995 3.19995)"/>
</clipPath>
</defs>
</svg>
