<svg width="20" height="20" viewBox="0 0 20 20" fill="none" xmlns="http://www.w3.org/2000/svg">
<g clip-path="url(#clip0_18_652)">
<path d="M10 1.25C14.8242 1.25 18.75 5.17578 18.75 10C18.75 14.8242 14.8242 18.75 10 18.75C5.17578 18.75 1.25 14.8242 1.25 10C1.25 5.17578 5.17578 1.25 10 1.25ZM10 0C4.47754 0 0 4.47754 0 10C0 15.5225 4.47754 20 10 20C15.5225 20 20 15.5225 20 10C20 4.47754 15.5225 0 10 0ZM15.575 13.3435L15.5188 13.1726C15.387 12.7796 14.9524 12.3694 14.552 12.2595L13.0737 11.8555C12.6734 11.7468 12.1021 11.8933 11.8079 12.1875L11.2732 12.7222C9.32988 12.1961 7.80523 10.6714 7.28031 8.72805L7.815 8.19336C8.10797 7.90039 8.25445 7.3291 8.14582 6.9275L7.74293 5.44922C7.6343 5.04883 7.22168 4.61426 6.82863 4.48242L6.66016 4.42625C6.26586 4.29441 5.70312 4.42746 5.41016 4.72168L4.60938 5.52246C4.46656 5.66406 4.375 6.07055 4.375 6.0718C4.34812 8.61332 5.34426 11.0608 7.14113 12.8589C8.93313 14.6509 11.3721 15.6458 13.905 15.6238C13.9185 15.6238 14.3372 15.5347 14.48 15.3918L15.2808 14.5911C15.5737 14.2993 15.7055 13.7366 15.575 13.3435Z" fill="white"/>
</g>
<defs>
<clipPath id="clip0_18_652">
<rect width="20" height="20" rx="10" fill="white"/>
</clipPath>
</defs>
</svg>
